HIERARCHY
ROOT root
{
	OFFSET	0	13.1	24.9
	CHANNELS 6  Xposition Yposition Zposition Xrotation Yrotation Zrotation
	JOINT spine_1
	{
		OFFSET	0	9.99999	0
		CHANNELS 3  Xrotation Yrotation Zrotation
		JOINT spine_2
		{
			OFFSET	0	112	-10
			CHANNELS 3  Xrotation Yrotation Zrotation
			JOINT spine_3
			{
				OFFSET	0	206.5	19.3
				CHANNELS 3  Xrotation Yrotation Zrotation
				JOINT spine_4
				{
					OFFSET	0	110.4	14.6
					CHANNELS 3  Xrotation Yrotation Zrotation
					JOINT neck_1
					{
						OFFSET	0	71.8	-50.3
						CHANNELS 3  Xrotation Yrotation Zrotation
						JOINT neck_2
						{
							OFFSET	0	86.2	-25.8
							CHANNELS 3  Xrotation Yrotation Zrotation
							JOINT head_ee
							{
								OFFSET	0	179.8	-8.7
								CHANNELS 3  Xrotation Yrotation Zrotation
								End Site
								{
									OFFSET	1	0	0
								}
							}
						}
					}
					JOINT left_clavicle
					{
						OFFSET	-43.2	22.4	-70.8
						CHANNELS 3  Xrotation Yrotation Zrotation
						JOINT left_shoulder
						{
							OFFSET	-93.9	-5.79999	48.7
							CHANNELS 3  Xrotation Yrotation Zrotation
							JOINT left_elbow
							{
								OFFSET	-291.4	-30.8	15.2
								CHANNELS 3  Xrotation Yrotation Zrotation
								JOINT left_lowarm_twist
								{
									OFFSET	-110.7	-3.89999	13.6
									CHANNELS 3  Xrotation Yrotation Zrotation
									JOINT left_hand
									{
										OFFSET	-110.7	-3.89999	13.6
										CHANNELS 3  Xrotation Yrotation Zrotation
										JOINT left_ee
										{
											OFFSET	-80.8	-5.10001	12.1
											CHANNELS 3  Xrotation Yrotation Zrotation
											End Site
											{
												OFFSET	1	0	0
											}
										}
									}
								}
							}
						}
					}
					JOINT right_clavicle
					{
						OFFSET	43.2	22.4	-70.8
						CHANNELS 3  Xrotation Yrotation Zrotation
						JOINT right_shoulder
						{
							OFFSET	93.9	-5.79999	48.7
							CHANNELS 3  Xrotation Yrotation Zrotation
							JOINT right_elbow
							{
								OFFSET	291.4	-30.8	15.2
								CHANNELS 3  Xrotation Yrotation Zrotation
								JOINT right_lowarm_twist
								{
									OFFSET	110.7	-3.89999	13.6
									CHANNELS 3  Xrotation Yrotation Zrotation
									JOINT right_hand
									{
										OFFSET	110.7	-3.89999	13.6
										CHANNELS 3  Xrotation Yrotation Zrotation
										JOINT right_ee
										{
											OFFSET	80.8	-5.10001	12.1
											CHANNELS 3  Xrotation Yrotation Zrotation
											End Site
											{
												OFFSET	1	0	0
											}
										}
									}
								}
							}
						}
					}
				}
			}
		}
	}
	JOINT left_hip
	{
		OFFSET	-82.8	-127.5	0.300001
		CHANNELS 3  Xrotation Yrotation Zrotation
		JOINT left_knee
		{
			OFFSET	-28.2	-396.7	2.2
			CHANNELS 3  Xrotation Yrotation Zrotation
			JOINT left_ankle
			{
				OFFSET	-11.7	-411.3	35.4
				CHANNELS 3  Xrotation Yrotation Zrotation
				JOINT left_toes
				{
					OFFSET	0	-60	-88.6
					CHANNELS 3  Xrotation Yrotation Zrotation
					JOINT left_foot_ee
					{
						OFFSET	-22.5	-16.5	-42.2
						CHANNELS 3  Xrotation Yrotation Zrotation
						End Site
						{
							OFFSET	1	0	0
						}
					}
				}
			}
		}
	}
	JOINT right_hip
	{
		OFFSET	82.8	-127.5	0.300001
		CHANNELS 3  Xrotation Yrotation Zrotation
		JOINT right_knee
		{
			OFFSET	28.2	-396.7	2.2
			CHANNELS 3  Xrotation Yrotation Zrotation
			JOINT right_ankle
			{
				OFFSET	11.7	-411.3	35.4
				CHANNELS 3  Xrotation Yrotation Zrotation
				JOINT right_toes
				{
					OFFSET	0	-60	-88.6
					CHANNELS 3  Xrotation Yrotation Zrotation
					JOINT right_foot_ee
					{
						OFFSET	22.5	-16.5	-42.2
						CHANNELS 3  Xrotation Yrotation Zrotation
						End Site
						{
							OFFSET	1	0	0
						}
					}
				}
			}
		}
	}
}
MOTION
Frames: 14
Frame Time: 0.02
1372.05 701.618 -1475.22 -21.3537408414 13.8180963176 1.95466139394 7.41203 0.208586 1.71093 7.41365 0.099309 1.72073 7.41416 -0.042574 1.72307 7.41009 0.230046 1.70818 -7.40538 4.49537 -7.35257 -7.23282 13.6258 -6.41827 -0.0 0.0 -0.0 1.3533 2.10844 2.80625 -5.40271 -17.875 57.2248 2.70645 -53.272 1.35761 -70.0367 -6.55071 5.30259 -4.3418 13.825 -22.0672 -0.0 0.0 -0.0 11.9821 6.67944 -24.1832 -67.9618 53.6673 -48.0082 0.33352 9.38164 -0.0273666 -53.9084 4.53637 -4.87154 6.19252 27.5852 -28.8432 0.0 0.0 0.0 4.74277 30.377 11.6231 -7.60417 0.237587 1.14197 41.1118 10.465 -4.97656 14.0384 -0.0 -0.0 -0.0 0.0 -0.0 54.9576 6.32518 -6.62498 -6.11071 -0.202931 -0.915415 -0.128141 19.8172 -0.021292 10.2058 -0.0 -0.0 0.0 0.0 0.0 
1340.7678354 698.473 -1523.31004344 -19.9567792512 17.4068562062 2.62190916249 6.93128 0.253309 1.58061 6.93265 0.152231 1.59352 6.93495 0.00726424 1.60076 6.93147 0.259951 1.57953 -8.64182 2.97574 -7.02316 -8.50616 10.4665 -6.26648 -0.0 0.0 -0.0 1.35346 5.76793 3.14309 -5.5987 -20.9951 60.2034 2.38426 -49.7389 1.10532 -68.7061 -6.38101 5.28877 -4.84716 10.1272 -28.0485 -0.0 0.0 -0.0 11.2254 2.37212 -22.354 -72.2368 54.4706 -41.5576 0.43249 12.0926 -0.0458102 -54.035 4.55162 -4.87712 5.97462 26.0821 -28.3692 0.0 0.0 0.0 3.73882 17.2392 11.6228 -11.9636 0.30483 1.80737 41.4356 11.8439 -5.0175 20.789 -0.0 -0.0 -0.0 0.0 -0.0 53.2639 7.50558 -5.83267 -13.756 -0.317758 -2.08206 -4.44387 18.6484 -0.738332 18.7895 -0.0 -0.0 0.0 0.0 0.0 
1341.47229383 698.473 -1523.76101343 -19.86971212 16.6214231269 2.32436091531 6.93128 0.253309 1.58061 6.93265 0.152231 1.59352 6.93495 0.00726424 1.60076 6.93147 0.259951 1.57953 -8.64182 2.97574 -7.02316 -8.50616 10.4665 -6.26648 -0.0 0.0 -0.0 1.35346 5.76793 3.14309 -5.5987 -20.9951 60.2034 2.38426 -49.7389 1.10532 -68.7061 -6.38101 5.28877 -4.84716 10.1272 -28.0485 -0.0 0.0 -0.0 11.2254 2.37212 -22.354 -72.2368 54.4706 -41.5576 0.43249 12.0926 -0.0458102 -54.035 4.55162 -4.87712 5.97462 26.0821 -28.3692 0.0 0.0 0.0 3.73882 17.2392 11.6228 -11.9636 0.30483 1.80737 41.4356 11.8439 -5.0175 20.789 -0.0 -0.0 -0.0 0.0 -0.0 53.2639 7.50558 -5.83267 -13.756 -0.317758 -2.08206 -4.44387 18.6484 -0.738332 18.7895 -0.0 -0.0 0.0 0.0 0.0 
1323.90048013 695.574 -1550.42586836 -18.6468821442 17.8152454372 1.78258048215 6.68314 0.338959 1.50758 6.68437 0.242352 1.52608 6.68915 0.0965404 1.54219 6.68599 0.33886 1.5076 -8.22688 3.50407 -7.38472 -8.07054 11.7409 -6.55594 -0.0 0.0 -0.0 1.30361 6.02338 3.07586 -5.75772 -21.2516 61.5732 2.12755 -46.4982 0.914113 -72.9117 -6.91799 5.31888 -4.17638 3.23489 -27.3329 -0.0 0.0 -0.0 11.1402 1.53368 -22.1269 -73.6983 54.2654 -39.7936 0.52224 14.5047 -0.0664597 -52.3142 4.34534 -4.79843 5.94004 26.3612 -27.9277 0.0 0.0 0.0 3.75436 20.5664 10.1932 -18.8672 0.307398 2.86595 40.2105 1.07375 -4.88699 27.3658 -0.0 -0.0 -0.0 0.0 -0.0 52.2825 7.41608 -4.61982 -18.6687 -0.309106 -2.83554 -2.72031 25.5188 -0.483339 17.4203 -0.0 -0.0 0.0 0.0 0.0 
1305.88994924 699.343 -1583.46606082 -18.2262149824 18.6574588498 1.62008541304 6.53331 0.283588 1.40448 6.53439 0.193652 1.41968 6.53777 0.05435 1.43179 6.53502 0.27977 1.40525 -7.72349 4.11045 -6.42699 -7.59824 12.2288 -5.52796 -0.0 0.0 -0.0 1.12835 7.79096 2.92467 -7.96217 -21.5512 61.7994 1.86705 -42.7608 0.731006 -70.6919 -6.63436 5.30793 -5.5062 0.362126 -39.8142 -0.0 0.0 -0.0 11.3418 3.65677 -22.666 -67.5889 55.7214 -43.5367 0.335554 9.43781 -0.027699 -49.2992 3.98989 -4.64575 6.64411 27.2813 -32.3175 0.0 0.0 0.0 2.99308 16.3708 10.4411 -20.6226 0.287718 3.13456 38.5736 3.52504 -4.73403 30.8635 -0.0 -0.0 -0.0 0.0 -0.0 51.2081 9.96558 -4.94641 -22.7674 -0.252514 -3.46178 -0.61258 13.5098 -0.0967911 18.7908 -0.0 -0.0 0.0 0.0 0.0 
1308.06275184 699.343 -1584.76448445 -18.109606172 17.5712537955 1.24505252295 6.53331 0.283588 1.40448 6.53439 0.193652 1.41968 6.53777 0.05435 1.43179 6.53502 0.27977 1.40525 -7.72349 4.11045 -6.42699 -7.59824 12.2288 -5.52796 -0.0 0.0 -0.0 1.12835 7.79096 2.92467 -7.96217 -21.5512 61.7994 1.86705 -42.7608 0.731006 -70.6919 -6.63436 5.30793 -5.5062 0.362126 -39.8142 -0.0 0.0 -0.0 11.3418 3.65677 -22.666 -67.5889 55.7214 -43.5367 0.335554 9.43781 -0.027699 -49.2992 3.98989 -4.64575 6.64411 27.2813 -32.3175 0.0 0.0 0.0 2.99308 16.3708 10.4411 -20.6226 0.287718 3.13456 38.5736 3.52504 -4.73403 30.8635 -0.0 -0.0 -0.0 0.0 -0.0 51.2081 9.96558 -4.94641 -22.7674 -0.252514 -3.46178 -0.61258 13.5098 -0.0967911 18.7908 -0.0 -0.0 0.0 0.0 0.0 
1272.10270824 711.417 -1642.72622964 -17.2881304218 19.3135654724 0.549680913825 7.32999 0.263057 1.67342 7.33154 0.156055 1.68676 7.33378 0.0144225 1.6939 7.32989 0.281724 1.67038 -12.409 4.33083 -8.56981 -12.3009 13.6816 -6.99557 -0.0 0.0 -0.0 1.8204 9.53427 4.28616 -16.5145 -21.1965 60.9958 1.41688 -35.0622 0.447607 -73.9129 -7.04597 5.3202 -4.84507 -3.54365 -36.5405 -0.0 0.0 -0.0 10.6066 3.6326 -21.0823 -63.8822 57.6305 -45.4296 0.358053 10.0581 -0.0315087 -52.016 4.30984 -4.78417 5.4812 25.658 -25.175 0.0 0.0 0.0 7.97977 8.94297 10.7087 -30.804 0.0124343 4.67076 36.9989 -6.47655 -4.68688 37.0527 -0.0 -0.0 -0.0 0.0 -0.0 45.1338 6.38308 -2.13485 -24.1558 -0.223203 -3.67282 6.58898 11.411 1.00468 21.7907 -0.0 -0.0 0.0 0.0 0.0 
1277.22504504 711.417 -1645.67828234 -17.1164237615 17.6545730562 0.00814990207094 7.32999 0.263057 1.67342 7.33154 0.156055 1.68676 7.33378 0.0144225 1.6939 7.32989 0.281724 1.67038 -12.409 4.33083 -8.56981 -12.3009 13.6816 -6.99557 -0.0 0.0 -0.0 1.8204 9.53427 4.28616 -16.5145 -21.1965 60.9958 1.41688 -35.0622 0.447607 -73.9129 -7.04597 5.3202 -4.84507 -3.54365 -36.5405 -0.0 0.0 -0.0 10.6066 3.6326 -21.0823 -63.8822 57.6305 -45.4296 0.358053 10.0581 -0.0315087 -52.016 4.30984 -4.78417 5.4812 25.658 -25.175 0.0 0.0 0.0 7.97977 8.94297 10.7087 -30.804 0.0124343 4.67076 36.9989 -6.47655 -4.68688 37.0527 -0.0 -0.0 -0.0 0.0 -0.0 45.1338 6.38308 -2.13485 -24.1558 -0.223203 -3.67282 6.58898 11.411 1.00468 21.7907 -0.0 -0.0 0.0 0.0 0.0 
1252.65869465 717.576 -1680.88634388 -15.0412887506 18.3683891351 -1.59217556822 6.58083 0.263942 2.10984 6.5833 0.129183 2.12235 6.58488 -0.0766084 2.1249 6.57867 0.259865 2.11035 -14.6427 6.21106 -8.47024 -14.6783 16.9418 -6.00128 -0.0 0.0 -0.0 3.34541 5.56621 6.75759 -17.4814 -15.0614 62.496 0.82471 -22.2217 0.161966 -70.9072 -6.66185 5.30948 -6.05789 -5.86224 -49.0974 -0.0 0.0 -0.0 10.277 5.08966 -20.4161 -58.7815 59.7869 -45.4695 0.484381 13.4931 -0.057301 -48.2235 3.86506 -4.58678 5.33584 27.5257 -22.9438 0.0 0.0 0.0 14.0245 12.0049 9.35659 -46.0567 -0.896338 6.82444 37.1111 -15.1871 -4.90739 39.3138 -0.0 -0.0 -0.0 0.0 -0.0 39.9707 -0.157381 0.586036 -21.4609 -0.275418 -3.2626 17.0053 13.54 2.51824 14.666 -0.0 -0.0 0.0 0.0 0.0 
1235.63382931 721.132 -1705.32970096 -14.9466386261 17.6936304452 -2.24952226736 6.97533 0.328781 2.08284 6.97773 0.195608 2.09953 6.98149 0.00636019 2.10861 6.97545 0.339223 2.08117 -16.1959 6.28589 -9.09261 -16.2679 17.2621 -6.33457 -0.0 0.0 -0.0 3.06537 7.54182 6.35151 -18.2618 -11.7926 64.4475 0.684309 -18.726 0.112834 -69.993 -6.54513 5.3022 -5.92679 -10.7907 -50.7174 -0.0 0.0 -0.0 9.91684 5.07167 -19.6452 -56.4817 61.9929 -45.0602 0.478155 13.3259 -0.0558572 -48.9602 3.95042 -4.62742 4.93248 23.998 -22.4083 0.0 0.0 0.0 21.137 9.34954 10.0476 -56.0117 -1.78506 8.0716 38.2437 -20.1371 -5.19768 34.0767 -0.0 -0.0 -0.0 0.0 -0.0 38.882 -4.83148 2.50091 -22.6305 -0.255128 -3.44092 28.0925 20.6754 4.12871 4.53597 -0.0 -0.0 0.0 0.0 0.0 
1227.70196822 722.109 -1725.9436489 -15.7750700386 17.8042152983 -2.10294842321 7.17729 0.183374 2.18406 7.17994 0.0440587 2.1913 7.17779 -0.145431 2.18691 7.17118 0.201691 2.18244 -15.5982 4.79269 -7.49086 -15.6134 13.5494 -5.42764 -0.0 0.0 -0.0 2.94744 8.77216 6.20626 -21.5574 -14.2532 64.9002 0.596909 -16.4726 0.0864028 -72.7282 -6.89454 5.31839 -5.65707 -12.3223 -48.7897 -0.0 0.0 -0.0 9.79602 4.38855 -19.3761 -51.1444 60.0827 -48.1918 0.50929 14.1597 -0.0632539 -46.0418 3.61539 -4.46004 4.11393 23.3555 -17.1781 0.0 0.0 0.0 26.1079 10.8195 7.73332 -62.631 -2.49068 8.80876 35.0751 -26.0462 -5.16631 38.6018 -0.0 -0.0 -0.0 0.0 -0.0 37.6159 -5.10485 2.77134 -20.9776 -0.282738 -3.18881 31.3842 17.5295 4.39702 3.81062 -0.0 -0.0 0.0 0.0 0.0 
1198.62322441 716.463 -1747.74011377 -16.2093024059 20.720386733 -0.844949467068 7.27697 0.168129 1.73885 7.27865 0.0571574 1.74602 7.27791 -0.0908335 1.7446 7.27371 0.18579 1.73705 -14.6814 4.5081 -5.21217 -14.7195 11.7359 -3.46229 -0.0 0.0 -0.0 1.70355 10.3506 4.1471 -19.0929 -15.3552 70.057 0.304901 -8.58917 0.0228968 -74.2591 -7.0902 5.32013 -5.48608 -18.3379 -49.8939 -0.0 0.0 -0.0 9.72687 5.04602 -19.2401 -54.8494 59.9426 -44.1936 0.572763 15.8404 -0.079684 -46.4245 3.65884 -4.48296 3.59775 18.8739 -16.0641 0.0 0.0 0.0 31.4229 7.55888 8.2155 -69.7889 -3.34438 9.5095 33.3611 -28.102 -5.09448 37.7316 -0.0 -0.0 -0.0 0.0 -0.0 35.4935 -7.64313 4.25846 -20.6062 -0.28794 -3.13205 38.1014 20.1387 5.18427 -1.00935 0.0 0.0 0.0 0.0 0.0 
1136.51648152 722.318 -1775.19470338 -16.7866267644 30.3625099661 1.92080013822 7.30343 0.30291 1.62802 7.30488 0.198715 1.64399 7.30836 0.0597944 1.65487 7.30468 0.320366 1.62468 -15.6261 4.02801 -1.33519 -15.6888 8.49268 0.123309 -0.0 0.0 -0.0 -0.280172 11.9074 0.936954 -21.8758 -16.6258 73.0192 0.198412 -5.61357 0.0097275 -76.0374 -7.31735 5.31553 -4.27189 -26.4327 -41.7549 -0.0 0.0 -0.0 11.0668 8.90541 -22.1858 -48.4991 57.5731 -45.6305 0.641429 17.6275 -0.0994571 -42.3922 3.20909 -4.22713 1.25421 15.1367 -1.98069 0.0 0.0 0.0 41.2635 -0.629587 6.64989 -77.2695 -4.32288 10.1229 23.6043 -30.8131 -3.99279 35.2874 -0.0 -0.0 -0.0 0.0 -0.0 31.9816 -16.1054 5.9877 -21.7736 -0.270349 -3.31033 38.0513 23.4744 5.33407 5.75083 -0.0 -0.0 0.0 0.0 0.0 
1149.40950591 722.318 -1784.88444967 -16.3998148481 28.040283171 1.12813175788 7.30343 0.30291 1.62802 7.30488 0.198715 1.64399 7.30836 0.0597944 1.65487 7.30468 0.320366 1.62468 -15.6261 4.02801 -1.33519 -15.6888 8.49268 0.123309 -0.0 0.0 -0.0 -0.280172 11.9074 0.936954 -21.8758 -16.6258 73.0192 0.198412 -5.61357 0.0097275 -76.0374 -7.31735 5.31553 -4.27189 -26.4327 -41.7549 -0.0 0.0 -0.0 11.0668 8.90541 -22.1858 -48.4991 57.5731 -45.6305 0.641429 17.6275 -0.0994571 -42.3922 3.20909 -4.22713 1.25421 15.1367 -1.98069 0.0 0.0 0.0 41.2635 -0.629587 6.64989 -77.2695 -4.32288 10.1229 23.6043 -30.8131 -3.99279 35.2874 -0.0 -0.0 -0.0 0.0 -0.0 31.9816 -16.1054 5.9877 -21.7736 -0.270349 -3.31033 38.0513 23.4744 5.33407 5.75083 -0.0 -0.0 0.0 0.0 0.0 
